<svg width="216" height="216" viewBox="0 0 216 216" fill="none" xmlns="http://www.w3.org/2000/svg">
<path d="M194.847 44.91C196.139 46.6972 197.382 48.5347 198.575 50.4217C198.341 50.5684 198.271 50.8764 198.417 51.1102C199.089 52.185 199.745 53.2758 200.384 54.3825C201.023 55.4892 201.64 56.6026 202.234 57.7223C202.364 57.9658 202.666 58.0586 202.909 57.9299C203.947 59.9063 204.917 61.9018 205.819 63.9136C205.567 64.0258 205.454 64.3206 205.565 64.5728C206.601 66.9118 207.545 69.2726 208.4 71.6508C208.493 71.9103 208.779 72.0453 209.038 71.9527C209.781 74.0534 210.455 76.1673 211.06 78.2916C210.794 78.3664 210.639 78.6418 210.714 78.9074C211.401 81.3661 211.995 83.8382 212.498 86.3192C212.553 86.5895 212.816 86.7643 213.087 86.7101C213.519 88.8935 213.88 91.0834 214.172 93.2768C213.899 93.3125 213.706 93.5628 213.741 93.8363C214.066 96.3636 214.298 98.8951 214.439 101.426C214.454 101.701 214.689 101.912 214.964 101.898C215.077 104.118 215.121 106.338 215.095 108.553C214.819 108.549 214.593 108.769 214.588 109.045C214.547 111.589 214.414 114.128 214.191 116.656C214.167 116.931 214.37 117.173 214.644 117.198C214.439 119.41 214.165 121.613 213.824 123.805C213.552 123.762 213.296 123.947 213.252 124.219C212.85 126.729 212.358 129.223 211.778 131.697C211.715 131.965 211.881 132.234 212.15 132.298C211.633 134.456 211.05 136.598 210.401 138.722C210.138 138.64 209.858 138.788 209.777 139.051C209.023 141.476 208.184 143.876 207.259 146.245C207.159 146.502 207.286 146.791 207.542 146.892C206.726 148.954 205.846 150.992 204.903 153.004C204.654 152.886 204.356 152.993 204.238 153.242C203.15 155.534 201.98 157.791 200.728 160.007C200.592 160.247 200.677 160.552 200.916 160.688C199.818 162.611 198.658 164.504 197.438 166.364C197.208 166.212 196.898 166.275 196.746 166.505C195.345 168.617 193.866 170.685 192.31 172.703C192.141 172.921 192.182 173.235 192.4 173.404C191.041 175.149 189.623 176.858 188.149 178.526C187.943 178.343 187.628 178.361 187.444 178.567C185.76 180.456 184.001 182.292 182.169 184.071C181.972 184.264 181.967 184.58 182.158 184.778C180.567 186.309 178.922 187.798 177.224 189.241C177.046 189.03 176.731 189.004 176.52 189.181C174.586 190.808 172.584 192.377 170.515 193.881C170.292 194.043 170.242 194.355 170.404 194.579C168.615 195.867 166.776 197.108 164.888 198.3C164.742 198.066 164.434 197.995 164.2 198.142C163.125 198.813 162.034 199.469 160.927 200.108C159.82 200.747 158.707 201.364 157.587 201.959C157.344 202.089 157.251 202.391 157.38 202.635C155.404 203.674 153.41 204.645 151.4 205.551C151.287 205.299 150.992 205.186 150.74 205.298C148.403 206.338 146.044 207.288 143.668 208.148C143.408 208.242 143.274 208.528 143.367 208.788C141.269 209.537 139.157 210.217 137.035 210.83C136.959 210.565 136.683 210.411 136.418 210.486C133.961 211.183 131.492 211.788 129.013 212.302C128.743 212.358 128.57 212.622 128.625 212.892C126.443 213.335 124.255 213.708 122.064 214.012C122.027 213.739 121.775 213.547 121.502 213.584C118.976 213.923 116.446 214.17 113.916 214.326C113.641 214.343 113.432 214.58 113.448 214.855C111.228 214.982 109.009 215.04 106.793 215.029C106.795 214.754 106.574 214.529 106.298 214.526C103.753 214.502 101.213 214.387 98.6843 214.183C98.4094 214.161 98.1686 214.366 98.1458 214.64C95.9319 214.451 93.7265 214.194 91.5329 213.87C91.5739 213.597 91.3865 213.343 91.1139 213.301C88.6001 212.917 86.1022 212.445 83.6253 211.885C83.3563 211.824 83.089 211.992 83.0275 212.261C80.8644 211.761 78.7175 211.195 76.5901 210.563C76.6692 210.299 76.5197 210.02 76.2557 209.941C73.8237 209.206 71.4177 208.385 69.0428 207.479C68.7852 207.381 68.4967 207.509 68.3978 207.767C66.3291 206.966 64.2841 206.102 62.2661 205.174C62.3819 204.924 62.2734 204.627 62.0234 204.51C59.7226 203.439 57.4577 202.285 55.2336 201.048C54.9926 200.915 54.6887 201.001 54.5543 201.242C52.6226 200.156 50.7219 199.009 48.8555 197.801C49.0058 197.57 48.9409 197.26 48.7101 197.11C46.5886 195.722 44.5122 194.255 42.4858 192.711C42.2665 192.544 41.9533 192.586 41.7857 192.804C40.0323 191.455 38.3166 190.046 36.6417 188.581C36.8237 188.374 36.8039 188.058 36.5973 187.876C34.7002 186.2 32.8565 184.449 31.0708 182.624C30.8779 182.427 30.562 182.424 30.3646 182.616C28.8272 181.03 27.3332 179.39 25.8856 177.696C26.0956 177.517 26.1215 177.202 25.9434 176.992C24.3109 175.063 22.7386 173.065 21.2308 170.998C21.0683 170.776 20.7561 170.727 20.5331 170.889C19.2419 169.101 17.9986 167.264 16.8059 165.377C17.0392 165.23 17.1099 164.922 16.9636 164.688C16.2913 163.614 15.6354 162.523 14.9964 161.416C14.3575 160.309 13.7408 159.196 13.1461 158.076C13.0168 157.833 12.7148 157.74 12.4711 157.869C11.4332 155.892 10.4635 153.897 9.5614 151.885C9.81314 151.773 9.92671 151.478 9.81506 151.226C8.77933 148.887 7.83496 146.526 6.98077 144.148C6.88756 143.888 6.60189 143.753 6.3423 143.846C5.59895 141.745 4.92543 139.631 4.32091 137.507C4.58616 137.432 4.74096 137.157 4.66674 136.891C3.97961 134.433 3.38515 131.96 2.88208 129.479C2.82729 129.209 2.56408 129.034 2.29385 129.088C1.86188 126.905 1.50023 124.715 1.20805 122.522C1.48132 122.486 1.67424 122.236 1.63913 121.962C1.31459 119.435 1.08259 116.903 0.9418 114.372C0.926487 114.097 0.691186 113.886 0.415975 113.901C0.302933 111.681 0.259705 109.461 0.28541 107.245C0.560987 107.249 0.787825 107.029 0.792316 106.753C0.833745 104.209 0.966458 101.67 1.18911 99.1423C1.2133 98.8676 1.01055 98.6253 0.736064 98.6005C0.941238 96.3888 1.21492 94.1855 1.55623 91.9937C1.82846 92.0368 2.0843 91.8514 2.128 91.5791C2.53079 89.0693 3.02273 86.5751 3.60244 84.1016C3.66536 83.8332 3.49905 83.5645 3.23085 83.501C3.74729 81.3426 4.33033 79.2002 4.97908 77.077C5.24247 77.1581 5.52198 77.0108 5.60379 76.7475C6.35713 74.3222 7.19675 71.9227 8.1213 69.5538C8.22156 69.2969 8.09491 69.0075 7.83839 68.9067C8.65418 66.8447 9.53416 64.8062 10.4775 62.7945C10.7267 62.9121 11.0243 62.8057 11.1425 62.5566C12.2302 60.2646 13.4007 58.0079 14.6527 55.7916C14.7883 55.5515 14.7039 55.247 14.4642 55.1109C15.5627 53.1872 16.7225 51.2941 17.9428 49.4348C18.1729 49.5866 18.4825 49.5235 18.6349 49.2937C20.0351 47.1816 21.5141 45.1139 23.0705 43.0955C23.2389 42.8771 23.1987 42.5637 22.9808 42.3949C24.3399 40.6493 25.7569 38.9408 27.2311 37.2725C27.4372 37.4555 27.7526 37.4372 27.9362 37.2314C29.6209 35.3426 31.3796 33.5062 33.2111 31.727C33.4089 31.5349 33.4138 31.219 33.2222 31.0208C34.8133 29.4894 36.4585 28.0008 38.1569 26.5577C38.3349 26.7682 38.6497 26.795 38.8607 26.6174C40.794 24.9901 42.796 23.422 44.8653 21.9174C45.0883 21.7552 45.1379 21.4432 44.9763 21.2199C46.7655 19.9316 48.6042 18.6903 50.4919 17.4989C50.6385 17.7323 50.9464 17.8032 51.1803 17.657C52.2556 16.9852 53.3467 16.3295 54.4535 15.6905C55.5602 15.0515 56.6736 14.4344 57.7931 13.8391C58.0366 13.7097 58.1292 13.4076 58.0003 13.1639C59.976 12.1249 61.9703 11.1531 63.9806 10.2478C64.0931 10.4994 64.3882 10.6125 64.6401 10.5004C66.9779 9.46058 69.3369 8.51091 71.7128 7.65021C71.9721 7.55629 72.1063 7.27024 72.013 7.0109C74.1119 6.26156 76.2237 5.58114 78.3456 4.96884C78.4213 5.23383 78.6974 5.38759 78.9627 5.31237C81.4192 4.61587 83.8889 4.01092 86.367 3.49628C86.637 3.44021 86.8106 3.17618 86.7552 2.90621C88.937 2.46373 91.1251 2.09081 93.3165 1.78662C93.3537 2.0597 93.605 2.25123 93.8783 2.2146C96.4045 1.87593 98.9347 1.62892 101.464 1.47229C101.739 1.45524 101.949 1.21861 101.932 0.943499C104.152 0.816368 106.372 0.758506 108.587 0.769047C108.585 1.04465 108.807 1.26996 109.082 1.27256C111.628 1.2965 114.167 1.41114 116.696 1.61516C116.971 1.63734 117.212 1.43282 117.235 1.15815C119.449 1.34711 121.654 1.60426 123.848 1.92875C123.807 2.20129 123.994 2.45572 124.267 2.49734C126.78 2.88109 129.278 3.35374 131.755 3.91393C132.024 3.97477 132.291 3.80636 132.353 3.53768C134.516 4.03743 136.663 4.60371 138.79 5.23567C138.711 5.49969 138.861 5.77806 139.125 5.8578C141.557 6.5925 143.963 7.41356 146.338 8.31963C146.595 8.41792 146.884 8.28907 146.983 8.03178C149.051 8.83207 151.096 9.69672 153.114 10.6249C152.999 10.875 153.107 11.1717 153.357 11.2881C155.658 12.3594 157.923 13.5138 160.147 14.75C160.388 14.884 160.692 14.7975 160.826 14.557C162.758 15.6425 164.659 16.7898 166.525 17.9979C166.375 18.2289 166.44 18.5381 166.67 18.689C168.792 20.0764 170.868 21.5431 172.895 23.0878C173.114 23.255 173.427 23.213 173.595 22.9942C175.348 24.344 177.064 25.7521 178.739 27.2179C178.557 27.4248 178.576 27.7402 178.783 27.9228C180.68 29.599 182.524 31.3498 184.31 33.1742C184.503 33.3713 184.818 33.375 185.016 33.1826C186.553 34.7683 188.047 36.4086 189.495 38.1026C189.285 38.2812 189.259 38.5961 189.437 38.8066C191.07 40.7354 192.642 42.7337 194.15 44.8001C194.312 45.0229 194.624 45.072 194.847 44.91Z" stroke="#1365E0" stroke-linecap="round" stroke-linejoin="round" stroke-dasharray="8 8"/>
</svg>
