<svg width="178" height="115" fill="none" xmlns="http://www.w3.org/2000/svg"><rect x="86" y="32" width="24" height="4" rx="2" fill="#ED254E"/><rect x="114" y="32" width="12" height="4" rx="2" fill="#1365E0"/><rect x="118" y="48" width="15" height="4" rx="2" fill="#1365E0"/><rect x="143" y="40" width="21" height="4" rx="2" fill="#1365E0"/><rect x="130" y="32" width="31" height="4" rx="2" fill="#1365E0"/><path d="M137 50a2 2 0 0 1 2-2h15a2 2 0 1 1 0 4h-15a2 2 0 0 1-2-2Z" fill="#1365E0"/><rect x="86" y="40" width="16" height="4" rx="2" fill="#ED254E"/><rect x="106" y="40" width="33" height="4" rx="2" fill="#1365E0"/><rect x="86" y="48" width="28" height="4" rx="2" fill="#ED254E"/><path fill="#F8F8FA" d="M1 14h176v2H1z"/><rect x="1" y="1" width="176" height="113" rx="10" stroke="#F8F8FA" stroke-width="2"/><circle cx="11.5" cy="8.5" r="1.5" fill="#F8F8FA"/><circle cx="16.5" cy="8.5" r="1.5" fill="#F8F8FA"/><circle cx="21.5" cy="8.5" r="1.5" fill="#F8F8FA"/><rect x="117" y="96.637" width="40" height="4" rx="2" transform="rotate(-75 117 96.637)" fill="#ED254E"/><path d="M115.068 67.691a2 2 0 1 0-2.136-3.382l2.136 3.382ZM95 78l-1.068-1.691L91.255 78l2.677 1.691L95 78Zm17.932 13.691a2 2 0 0 0 2.136-3.382l-2.136 3.382Zm0-27.382-19 12 2.136 3.382 19-12-2.136-3.382Zm-19 15.382 19 12 2.136-3.382-19-12-2.136 3.382ZM133.932 88.309a2 2 0 1 0 2.136 3.382l-2.136-3.382ZM154 78l1.068 1.691L157.745 78l-2.677-1.691L154 78Zm-17.932-13.691a2 2 0 0 0-2.136 3.382l2.136-3.382Zm0 27.382 19-12-2.136-3.382-19 12 2.136 3.382Zm19-15.382-19-12-2.136 3.382 19 12 2.136-3.382Z" fill="#ED254E"/><rect x="14" y="30" width="64" height="64" rx="8" fill="#ED254E"/><g clip-path="url(#a)"><path d="M36.894 52.366a6.008 6.008 0 0 1-1 3.32 5.938 5.938 0 0 1-2.661 2.2 5.885 5.885 0 0 1-3.426.339 5.915 5.915 0 0 1-3.035-1.638 5.99 5.99 0 0 1-1.62-3.061 6.017 6.017 0 0 1 .34-3.453 5.965 5.965 0 0 1 2.188-2.679 5.895 5.895 0 0 1 5.563-.547c.718.3 1.371.74 1.921 1.295a6.007 6.007 0 0 1 1.73 4.224Z" fill="#F8F8FA"/><path d="M39.784 62.116V46.11h11.432v16.006H39.784Z" fill="#F8F8FA" stroke="#1A1A28" stroke-width="2"/><path d="m42.564 47.526-.572-1.775-1.336-4.134a2.318 2.318 0 0 0-1.147-1.35 2.289 2.289 0 0 0-1.757-.137l-14.28 4.645a9.337 9.337 0 0 0-3.192 1.8 9.42 9.42 0 0 0-2.264 2.894 9.488 9.488 0 0 0-.555 7.208l.258.8a9.42 9.42 0 0 0 4.656 5.49 9.301 9.301 0 0 0 7.144.567l5.928-1.942a11.045 11.045 0 0 0 3.973-2.323 10.645 10.645 0 0 0 1.844-2.146 11.232 11.232 0 0 0 1.3-9.598ZM30.976 58.34a5.895 5.895 0 0 1-3.296-1.002 5.964 5.964 0 0 1-2.187-2.68 6.018 6.018 0 0 1-.341-3.452 5.988 5.988 0 0 1 1.62-3.06 5.914 5.914 0 0 1 3.035-1.638 5.885 5.885 0 0 1 3.426.338 5.938 5.938 0 0 1 2.662 2.2 6.007 6.007 0 0 1-.734 7.541 5.905 5.905 0 0 1-4.185 1.753Z" fill="#1A1A28"/><path d="M42 81V64h7v17h-7Z" fill="#F8F8FA" stroke="#1A1A28" stroke-width="2"/><path d="M56 81H35v8h21v-8Z" fill="#1A1A28"/><path d="M60.024 58.34c3.274 0 5.928-2.675 5.928-5.974 0-3.3-2.654-5.974-5.928-5.974s-5.928 2.675-5.928 5.974c0 3.3 2.654 5.974 5.928 5.974ZM36.894 52.338a6.008 6.008 0 0 1-1 3.32 5.937 5.937 0 0 1-2.661 2.2 5.885 5.885 0 0 1-3.426.339 5.914 5.914 0 0 1-3.035-1.638 5.99 5.99 0 0 1-1.62-3.06 6.017 6.017 0 0 1 .34-3.453 5.965 5.965 0 0 1 2.188-2.68 5.894 5.894 0 0 1 5.563-.547c.718.3 1.371.74 1.921 1.296.55.554.986 1.213 1.282 1.938.297.725.45 1.501.448 2.285Z" fill="#F8F8FA"/><path d="m67.528 44.785-14.28-4.646a2.289 2.289 0 0 0-1.754.135c-.544.276-.958.76-1.15 1.343l-1.336 4.153-.572 1.774a11.232 11.232 0 0 0 1.31 9.616 10.64 10.64 0 0 0 1.843 2.146 11.04 11.04 0 0 0 3.973 2.305l5.928 1.941a9.3 9.3 0 0 0 7.145-.566 9.42 9.42 0 0 0 4.655-5.491l.258-.8a9.517 9.517 0 0 0-.56-7.212 9.439 9.439 0 0 0-2.266-2.896 9.357 9.357 0 0 0-3.194-1.802ZM60.024 58.34a5.895 5.895 0 0 1-3.293-1.007 5.964 5.964 0 0 1-2.183-2.68 6.016 6.016 0 0 1-.337-3.452 5.988 5.988 0 0 1 1.622-3.06 5.913 5.913 0 0 1 3.035-1.634 5.885 5.885 0 0 1 3.425.34 5.938 5.938 0 0 1 2.66 2.2 6.008 6.008 0 0 1-.737 7.543 5.888 5.888 0 0 1-4.192 1.75Z" fill="#1A1A28"/><path d="M60.024 58.322c3.274 0 5.928-2.675 5.928-5.974 0-3.3-2.654-5.974-5.928-5.974s-5.928 2.674-5.928 5.974c0 3.299 2.654 5.974 5.928 5.974Z" fill="#F8F8FA"/></g><defs><clipPath id="a"><path fill="#fff" transform="translate(17 40)" d="M0 0h57v49H0z"/></clipPath></defs></svg>