<svg width="198" height="162" fill="none" xmlns="http://www.w3.org/2000/svg"><rect x="155" y="34" width="33" height="73" rx="2" fill="#ED254E"/><rect x="30" y="16" width="158" height="12" rx="2" fill="#ED254E"/><rect x="21" y="1" width="176" height="113" rx="10" stroke="#F8F8FA" stroke-width="2"/><circle cx="31.5" cy="8.5" r="1.5" fill="#F8F8FA"/><circle cx="36.5" cy="8.5" r="1.5" fill="#F8F8FA"/><circle cx="41.5" cy="8.5" r="1.5" fill="#F8F8FA"/><path d="M170.27 54.071a1.13 1.13 0 0 0-1.036.13 1.123 1.123 0 0 0-.484.923v18.192a5.998 5.998 0 0 0-9.538 3.102 6 6 0 1 0 11.752 2.238c.024-.092.036-.186.036-.28V64.248l10.48 3.93a1.13 1.13 0 0 0 1.036-.129 1.124 1.124 0 0 0 .484-.924v-4.9a4.873 4.873 0 0 0-3.163-4.567l-9.567-3.587Z" fill="#F8F8FA"/><rect x="30" y="34" width="27" height="18" rx="2" fill="#F8F8FA"/><rect x="30" y="87" width="27" height="20" rx="2" fill="#F8F8FA"/><rect x="30" y="54" width="27" height="3" rx="1.5" fill="#F8F8FA"/><rect x="30" y="59" width="27" height="3" rx="1.5" fill="#F8F8FA"/><rect x="30" y="64" width="27" height="3" rx="1.5" fill="#F8F8FA"/><rect x="30" y="69" width="27" height="3" rx="1.5" fill="#F8F8FA"/><rect x="30" y="74" width="27" height="3" rx="1.5" fill="#F8F8FA"/><rect x="30" y="79" width="16" height="3" rx="1.5" fill="#F8F8FA"/><rect x="65" y="34" width="81" height="38" rx="2" fill="#F8F8FA"/><rect x="65" y="74" width="25" height="33" rx="2" fill="#ED254E"/><rect x="93" y="74" width="53" height="3" rx="1.5" fill="#F8F8FA"/><rect x="93" y="79" width="53" height="3" rx="1.5" fill="#F8F8FA"/><rect x="93" y="84" width="53" height="3" rx="1.5" fill="#F8F8FA"/><rect x="93" y="89" width="53" height="3" rx="1.5" fill="#F8F8FA"/><rect x="93" y="94" width="53" height="3" rx="1.5" fill="#F8F8FA"/><rect x="93" y="99" width="53" height="3" rx="1.5" fill="#F8F8FA"/><rect x="93" y="104" width="42" height="3" rx="1.5" fill="#F8F8FA"/><rect x="1" y="48" width="59" height="113" rx="10" fill="#1A1A28" stroke="#F8F8FA" stroke-width="2"/><rect x="18" y="47" width="25" height="4" rx="2" fill="#F8F8FA"/><rect x="17" y="119" width="34" height="2" rx="1" fill="#F8F8FA"/><rect x="17" y="115" width="34" height="2" rx="1" fill="#F8F8FA"/><rect x="17" y="123" width="34" height="26" rx="2" fill="#F8F8FA"/><rect x="6" y="64" width="9" height="9" rx="2" fill="#ED254E"/><rect x="6" y="112" width="9" height="9" rx="2" fill="#F8F8FA"/><rect x="17" y="71" width="34" height="2" rx="1" fill="#ED254E"/><rect x="17" y="67" width="34" height="2" rx="1" fill="#ED254E"/><rect x="17" y="75" width="34" height="30" rx="2" fill="#ED254E"/><path d="M39 87.268c1.333.77 1.333 2.694 0 3.464l-7.5 4.33c-1.333.77-3-.192-3-1.732v-8.66c0-1.54 1.667-2.502 3-1.732l7.5 4.33Z" fill="#F8F8FA"/></svg>