<svg width="178" height="115" fill="none" xmlns="http://www.w3.org/2000/svg"><rect x="22" y="32" width="24" height="4" rx="2" fill="#ED254E"/><rect x="50" y="32" width="12" height="4" rx="2" fill="#1365E0"/><rect x="54" y="48" width="15" height="4" rx="2" fill="#1365E0"/><rect x="37" y="56" width="15" height="4" rx="2" fill="#1365E0"/><rect x="44" y="64" width="21" height="4" rx="2" fill="#1365E0"/><rect x="39" y="72" width="18" height="4" rx="2" fill="#1365E0"/><rect x="61" y="72" width="10" height="4" rx="2" fill="#1365E0"/><rect x="75" y="72" width="10" height="4" rx="2" fill="#1365E0"/><rect x="69" y="64" width="27" height="4" rx="2" fill="#1365E0"/><rect x="56" y="56" width="8" height="4" rx="2" fill="#1365E0"/><rect x="68" y="56" width="29" height="4" rx="2" fill="#1365E0"/><rect x="101" y="56" width="23" height="4" rx="2" fill="#1365E0"/><rect x="128" y="56" width="21" height="4" rx="2" fill="#1365E0"/><rect x="115" y="48" width="15" height="4" rx="2" fill="#1365E0"/><rect x="79" y="40" width="21" height="4" rx="2" fill="#1365E0"/><rect x="66" y="32" width="31" height="4" rx="2" fill="#1365E0"/><rect x="104" y="40" width="41" height="4" rx="2" fill="#1365E0"/><rect x="73" y="48" width="38" height="4" rx="2" fill="#1365E0"/><rect x="101" y="32" width="34" height="4" rx="2" fill="#1365E0"/><rect x="22" y="40" width="16" height="4" rx="2" fill="#ED254E"/><rect x="42" y="40" width="33" height="4" rx="2" fill="#1365E0"/><rect x="22" y="48" width="28" height="4" rx="2" fill="#ED254E"/><rect x="22" y="56" width="11" height="4" rx="2" fill="#ED254E"/><rect x="22" y="64" width="18" height="4" rx="2" fill="#ED254E"/><rect x="22" y="72" width="13" height="4" rx="2" fill="#ED254E"/><rect x="22" y="80" width="16" height="4" rx="2" fill="#ED254E"/><rect x="22" y="88" width="25" height="4" rx="2" fill="#ED254E"/><rect x="51" y="88" width="26" height="4" rx="2" fill="#1365E0"/><rect x="42" y="80" width="10" height="4" rx="2" fill="#1365E0"/><rect x="56" y="80" width="19" height="4" rx="2" fill="#1365E0"/><path fill="#F8F8FA" d="M1 14h176v2H1z"/><rect x="1" y="1" width="176" height="113" rx="10" stroke="#F8F8FA" stroke-width="2"/><circle cx="11.5" cy="8.5" r="1.5" fill="#F8F8FA"/><circle cx="16.5" cy="8.5" r="1.5" fill="#F8F8FA"/><circle cx="21.5" cy="8.5" r="1.5" fill="#F8F8FA"/><rect x="115" y="102.637" width="40" height="4" rx="2" transform="rotate(-75 115 102.637)" fill="#ED254E"/><path d="M113.068 73.691a2 2 0 1 0-2.136-3.382l2.136 3.382ZM93 84l-1.068-1.691L89.255 84l2.677 1.691L93 84Zm17.932 13.691a2 2 0 0 0 2.136-3.382l-2.136 3.382Zm0-27.382-19 12 2.136 3.382 19-12-2.136-3.382Zm-19 15.382 19 12 2.136-3.382-19-12-2.136 3.382ZM131.932 94.309a2 2 0 1 0 2.136 3.382l-2.136-3.382ZM152 84l1.068 1.691L155.745 84l-2.677-1.691L152 84Zm-17.932-13.691a2 2 0 0 0-2.136 3.382l2.136-3.382Zm0 27.382 19-12-2.136-3.382-19 12 2.136 3.382Zm19-15.382-19-12-2.136 3.382 19 12 2.136-3.382Z" fill="#ED254E"/></svg>