<svg width="356" height="359" viewBox="0 0 356 359" fill="none" xmlns="http://www.w3.org/2000/svg">
<g filter="url(#filter0_f_204_190)">
<circle cx="103.483" cy="103.048" r="38.6449" fill="#1365E0"/>
</g>
<circle cx="103.204" cy="102.258" r="23.6431" transform="rotate(-30 103.204 102.258)" fill="#1365E0" stroke="#1365E0" stroke-width="2" stroke-dasharray="4 4"/>
<path d="M323.67 113.857C323.513 110.628 323.324 107.997 323.161 106.06L322.663 106.101C322.559 104.861 322.465 103.906 322.398 103.262C322.371 103.003 322.348 102.794 322.33 102.637L318.81 101.849L318.919 101.361L311.184 99.6308L311.075 100.119L303.34 98.3883L303.45 97.9004L295.715 96.1699L295.606 96.6578L287.871 94.9274L287.981 94.4394L280.246 92.709L280.137 93.1969L272.402 91.4664L272.511 90.9785L264.777 89.248L264.668 89.736L256.933 88.0055L257.042 87.5176L249.308 85.7871L249.199 86.275L241.464 84.5446L241.573 84.0566L233.839 82.3262L233.73 82.8141L225.995 81.0836L226.104 80.5957L218.37 78.8652L218.26 79.3532L214.502 78.5124L210.744 79.3532L210.635 78.8652L202.9 80.5957L203.009 81.0836L195.274 82.8141L195.165 82.3262L187.43 84.0566L187.539 84.5446L179.804 86.275L179.695 85.7871L171.96 87.5176L172.069 88.0055L164.334 89.736L164.225 89.248L156.49 90.9785L156.599 91.4664L148.864 93.1969L148.755 92.709L141.02 94.4394L141.129 94.9274L133.394 96.6578L133.285 96.1699L125.55 97.9004L125.659 98.3883L117.924 100.119L117.815 99.6308L110.08 101.361L110.189 101.849L106.668 102.637C106.65 102.794 106.628 103.003 106.6 103.262C106.533 103.906 106.44 104.861 106.336 106.101L105.837 106.06C105.675 107.997 105.486 110.628 105.329 113.857L105.828 113.882C105.716 116.172 105.621 118.765 105.562 121.626L105.062 121.616C105.012 124.048 104.989 126.674 105.005 129.473L105.505 129.47C105.519 131.925 105.563 134.514 105.646 137.222L105.146 137.237C105.223 139.735 105.333 142.334 105.482 145.023L105.982 144.995C106.122 147.51 106.296 150.104 106.512 152.767L106.013 152.807C106.218 155.338 106.459 157.931 106.741 160.579L107.238 160.526C107.508 163.058 107.815 165.641 108.164 168.267L107.668 168.333C108.006 170.87 108.382 173.449 108.802 176.062L109.295 175.983C109.702 178.514 110.148 181.078 110.638 183.669L110.147 183.761C110.623 186.28 111.14 188.824 111.702 191.388L112.19 191.281C112.739 193.786 113.331 196.311 113.967 198.851L113.482 198.972C114.109 201.471 114.779 203.985 115.495 206.507L115.976 206.371C116.68 208.849 117.429 211.336 118.226 213.829L117.75 213.981C118.537 216.444 119.371 218.912 120.253 221.381L120.724 221.212C121.592 223.638 122.507 226.065 123.471 228.488L123.007 228.673C123.962 231.073 124.966 233.469 126.022 235.858L126.479 235.656C127.521 238.017 128.614 240.37 129.759 242.713L129.309 242.932C130.446 245.259 131.635 247.575 132.877 249.878L133.317 249.64C134.542 251.911 135.82 254.168 137.152 256.408L136.722 256.663C138.043 258.884 139.417 261.088 140.847 263.271L141.265 262.998C142.678 265.155 144.145 267.293 145.668 269.408L145.263 269.7C146.777 271.802 148.347 273.88 149.974 275.933L150.366 275.622C151.964 277.639 153.618 279.63 155.33 281.592L154.953 281.921C156.649 283.866 158.4 285.782 160.21 287.668L160.571 287.322C162.355 289.181 164.196 291.011 166.096 292.807L165.752 293.171C167.627 294.944 169.558 296.685 171.548 298.392L171.873 298.013C173.819 299.682 175.82 301.317 177.879 302.917L177.572 303.312C179.609 304.895 181.703 306.444 183.854 307.955L184.141 307.546C186.242 309.022 188.398 310.462 190.611 311.864L190.343 312.286C192.509 313.658 194.728 314.994 197.003 316.292L197.251 315.857C199.487 317.133 201.778 318.371 204.123 319.57L203.895 320.015C206.174 321.18 208.504 322.307 210.888 323.396L211.095 322.941C212.219 323.455 213.355 323.96 214.502 324.455C215.65 323.96 216.786 323.455 217.909 322.942L218.117 323.396C220.5 322.308 222.831 321.18 225.11 320.015L224.882 319.57C227.227 318.371 229.517 317.133 231.754 315.858L232.002 316.292C234.277 314.995 236.496 313.659 238.662 312.287L238.394 311.864C240.607 310.462 242.763 309.022 244.864 307.547L245.151 307.956C247.302 306.445 249.396 304.896 251.433 303.313L251.126 302.918C253.185 301.318 255.187 299.683 257.132 298.014L257.457 298.393C259.447 296.686 261.379 294.945 263.253 293.172L262.91 292.808C264.809 291.012 266.65 289.182 268.434 287.323L268.795 287.669C270.605 285.783 272.357 283.867 274.053 281.922L273.676 281.594C275.387 279.631 277.042 277.64 278.64 275.623L279.032 275.934C280.659 273.881 282.229 271.803 283.743 269.701L283.337 269.409C284.861 267.294 286.328 265.157 287.741 262.999L288.159 263.273C289.589 261.089 290.963 258.885 292.284 256.664L291.854 256.409C293.186 254.169 294.463 251.912 295.689 249.641L296.129 249.879C297.371 247.576 298.559 245.26 299.696 242.933L299.247 242.714C300.392 240.371 301.484 238.018 302.526 235.657L302.984 235.859C304.039 233.47 305.043 231.073 305.998 228.674L305.534 228.489C306.498 226.066 307.413 223.639 308.281 221.213L308.751 221.382C309.634 218.913 310.468 216.445 311.255 213.981L310.779 213.829C311.575 211.337 312.324 208.85 313.028 206.371L313.509 206.508C314.226 203.985 314.896 201.472 315.522 198.973L315.037 198.851C315.673 196.312 316.264 193.787 316.813 191.281L317.302 191.388C317.863 188.824 318.381 186.28 318.857 183.762L318.365 183.669C318.855 181.078 319.301 178.514 319.708 175.983L320.201 176.062C320.62 173.449 320.997 170.871 321.334 168.333L320.838 168.267C321.188 165.641 321.495 163.058 321.764 160.526L322.261 160.579C322.543 157.931 322.784 155.338 322.988 152.807L322.49 152.767C322.705 150.104 322.88 147.51 323.019 144.995L323.519 145.023C323.668 142.334 323.778 139.735 323.854 137.237L323.354 137.221C323.437 134.514 323.481 131.925 323.495 129.47L323.995 129.472C324.011 126.674 323.987 124.048 323.937 121.616L323.437 121.626C323.378 118.765 323.283 116.172 323.171 113.882L323.67 113.857Z" stroke="#1365E0" stroke-dasharray="8 8"/>
<path d="M283.229 137.399L214.502 122L145.769 137.399C145.769 137.399 132.678 243.707 214.502 279C296.329 243.707 283.229 137.399 283.229 137.399Z" fill="#ED254E"/>
<circle cx="214.663" cy="78.6631" r="23.6431" transform="rotate(-30 214.663 78.6631)" fill="#14141C" stroke="#1365E0" stroke-width="2" stroke-dasharray="4 4"/>
<circle cx="214.663" cy="324.663" r="23.6431" transform="rotate(-30 214.663 324.663)" fill="#14141C" stroke="#1365E0" stroke-width="2" stroke-dasharray="4 4"/>
<circle cx="321.663" cy="98.6631" r="23.6431" transform="rotate(-30 321.663 98.6631)" fill="#14141C" stroke="#1365E0" stroke-width="2" stroke-dasharray="4 4"/>
<path d="M210.521 112.878L202.56 114.634L202.668 115.122L194.707 116.877L194.599 116.389L186.638 118.145L186.746 118.633L178.785 120.389L178.677 119.901L170.716 121.656L170.824 122.145L162.863 123.9L162.755 123.412L154.794 125.168L154.901 125.656L146.94 127.412L146.833 126.923L138.872 128.679L138.979 129.167L135.347 129.968C135.328 130.131 135.305 130.349 135.277 130.621C135.21 131.283 135.118 132.261 135.021 133.525L134.522 133.487C134.368 135.498 134.202 138.228 134.099 141.554L134.599 141.569C134.525 143.954 134.485 146.645 134.506 149.598L134.006 149.601C134.023 152.098 134.085 154.78 134.208 157.621L134.707 157.6C134.817 160.149 134.977 162.826 135.198 165.61L134.699 165.649C134.904 168.227 135.162 170.898 135.482 173.644L135.978 173.586C136.28 176.178 136.638 178.838 137.06 181.553L136.566 181.629C136.97 184.222 137.431 186.864 137.958 189.544L138.449 189.447C138.956 192.024 139.523 194.635 140.158 197.272L139.672 197.389C140.29 199.959 140.973 202.552 141.725 205.16L142.205 205.021C142.937 207.561 143.736 210.113 144.606 212.67L144.132 212.831C144.988 215.345 145.912 217.863 146.911 220.376L147.376 220.192C148.354 222.654 149.404 225.113 150.53 227.559L150.076 227.768C151.188 230.184 152.375 232.589 153.64 234.975L154.082 234.741C155.324 237.082 156.643 239.406 158.043 241.703L157.616 241.963C158.999 244.235 160.462 246.481 162.008 248.696L162.418 248.41C163.933 250.581 165.529 252.721 167.209 254.823L166.818 255.136C168.476 257.21 170.215 259.249 172.04 261.245L172.409 260.907C174.192 262.857 176.057 264.766 178.007 266.628L177.662 266.99C179.578 268.818 181.576 270.602 183.66 272.335L183.98 271.951C186.004 273.634 188.109 275.27 190.298 276.852L190.006 277.258C192.144 278.803 194.363 280.299 196.665 281.739L196.93 281.315C199.155 282.707 201.457 284.047 203.84 285.331L203.603 285.771C205.92 287.02 208.313 288.215 210.784 289.354L210.993 288.9C212.145 289.432 213.315 289.95 214.502 290.457C215.689 289.95 216.858 289.432 218.011 288.9L218.22 289.354C220.691 288.215 223.084 287.02 225.401 285.771L225.163 285.331C227.547 284.047 229.849 282.707 232.073 281.315L232.338 281.739C234.641 280.299 236.859 278.804 238.998 277.258L238.705 276.853C240.895 275.27 243 273.635 245.024 271.952L245.344 272.336C247.428 270.603 249.426 268.819 251.342 266.99L250.997 266.629C252.947 264.767 254.812 262.858 256.595 260.908L256.964 261.245C258.789 259.25 260.529 257.211 262.186 255.136L261.796 254.824C263.475 252.722 265.071 250.582 266.586 248.411L266.996 248.697C268.542 246.482 270.005 244.236 271.389 241.964L270.962 241.704C272.361 239.406 273.68 237.083 274.922 234.741L275.364 234.976C276.629 232.59 277.816 230.185 278.928 227.769L278.474 227.56C279.6 225.113 280.65 222.655 281.628 220.192L282.093 220.377C283.091 217.863 284.016 215.345 284.871 212.831L284.398 212.67C285.268 210.114 286.066 207.561 286.798 205.022L287.279 205.16C288.03 202.553 288.713 199.959 289.331 197.389L288.845 197.272C289.48 194.636 290.047 192.024 290.554 189.447L291.044 189.544C291.571 186.864 292.033 184.222 292.436 181.63L291.942 181.553C292.364 178.838 292.721 176.178 293.023 173.586L293.52 173.644C293.84 170.898 294.097 168.227 294.302 165.649L293.803 165.61C294.024 162.826 294.183 160.149 294.293 157.6L294.793 157.621C294.915 154.78 294.977 152.098 294.995 149.601L294.495 149.598C294.515 146.645 294.475 143.954 294.401 141.569L294.901 141.553C294.798 138.228 294.631 135.498 294.476 133.487L293.978 133.525C293.881 132.261 293.789 131.283 293.722 130.621C293.694 130.349 293.67 130.131 293.652 129.968L290.02 129.167L290.127 128.679L282.167 126.923L282.059 127.412L274.098 125.656L274.206 125.168L266.245 123.412L266.138 123.9L258.177 122.145L258.285 121.656L250.324 119.901L250.217 120.389L242.256 118.633L242.364 118.145L234.403 116.389L234.295 116.877L226.335 115.122L226.443 114.634L218.482 112.878L218.374 113.366L214.502 112.512L210.629 113.366L210.521 112.878Z" stroke="#ED254E" stroke-dasharray="8 8"/>
<defs>
<filter id="filter0_f_204_190" x="0.838623" y="0.402832" width="205.29" height="205.29" filterUnits="userSpaceOnUse" color-interpolation-filters="sRGB">
<feFlood flood-opacity="0" result="BackgroundImageFix"/>
<feBlend mode="normal" in="SourceGraphic" in2="BackgroundImageFix" result="shape"/>
<feGaussianBlur stdDeviation="32" result="effect1_foregroundBlur_204_190"/>
</filter>
</defs>
</svg>
