<svg width="305" height="343" fill="none" xmlns="http://www.w3.org/2000/svg"><mask id="a" style="mask-type:alpha" maskUnits="userSpaceOnUse" x="53" y="147" width="220" height="99"><path transform="rotate(36 122.902 147)" fill="#ED254E" d="M122.902 147h3.166v118.91h-3.166z"/><path transform="rotate(36 130.642 147)" fill="#ED254E" d="M130.642 147h3.166v118.91h-3.166z"/><path transform="rotate(36 138.382 147)" fill="#ED254E" d="M138.382 147h3.166v118.91h-3.166z"/><path transform="rotate(36 146.121 147)" fill="#ED254E" d="M146.121 147h3.166v118.91h-3.166z"/><path transform="rotate(36 153.861 147)" fill="#ED254E" d="M153.861 147h3.166v118.91h-3.166z"/><path transform="rotate(36 161.601 147)" fill="#ED254E" d="M161.601 147h3.166v118.91h-3.166z"/><path transform="rotate(36 169.341 147)" fill="#ED254E" d="M169.341 147h3.166v118.91h-3.166z"/><path transform="rotate(36 177.08 147)" fill="#ED254E" d="M177.08 147h3.166v118.91h-3.166z"/><path transform="rotate(36 184.82 147)" fill="#ED254E" d="M184.82 147h3.166v118.91h-3.166z"/><path transform="rotate(36 192.56 147)" fill="#ED254E" d="M192.56 147h3.166v118.91h-3.166z"/><path transform="rotate(36 200.3 147)" fill="#ED254E" d="M200.3 147h3.166v118.91H200.3z"/><path transform="rotate(36 208.039 147)" fill="#ED254E" d="M208.039 147h3.166v118.91h-3.166z"/><path transform="rotate(36 215.779 147)" fill="#ED254E" d="M215.779 147h3.166v118.91h-3.166z"/><path transform="rotate(36 223.519 147)" fill="#ED254E" d="M223.519 147h3.166v118.91h-3.166z"/><path transform="rotate(36 231.258 147)" fill="#ED254E" d="M231.258 147h3.166v118.91h-3.166z"/><path transform="rotate(36 238.998 147)" fill="#ED254E" d="M238.998 147h3.166v118.91h-3.166z"/><path transform="rotate(36 246.738 147)" fill="#ED254E" d="M246.738 147h3.166v118.91h-3.166z"/><path transform="rotate(36 254.478 147)" fill="#ED254E" d="M254.478 147h3.166v118.91h-3.166z"/><path transform="rotate(36 262.217 147)" fill="#ED254E" d="M262.217 147h3.166v118.91h-3.166z"/><path transform="rotate(36 269.957 147)" fill="#ED254E" d="M269.957 147h3.166v118.91h-3.166z"/></mask><g mask="url(#a)"><ellipse cx="158.734" cy="195.582" rx="45.674" ry="45.251" fill="#ED254E"/></g><g filter="url(#b)"><circle cx="103.483" cy="103.048" r="38.645" fill="#1365E0"/></g><circle cx="103.204" cy="102.258" r="23.643" transform="rotate(-30 103.204 102.258)" fill="#1365E0" stroke="#1365E0" stroke-width="2" stroke-dasharray="4 4"/><path d="M244.847 132.91a106.96 106.96 0 0 1 3.728 5.512.499.499 0 0 0-.158.688 107.566 107.566 0 0 1 3.817 6.612.5.5 0 0 0 .675.208 106.935 106.935 0 0 1 2.91 5.984.5.5 0 0 0-.254.659c1.036 2.339 1.98 4.7 2.835 7.078a.5.5 0 0 0 .638.302c.743 2.1 1.417 4.214 2.022 6.339a.498.498 0 0 0-.346.615 105.302 105.302 0 0 1 1.784 7.412.5.5 0 0 0 .589.391c.432 2.184.793 4.373 1.085 6.567a.5.5 0 0 0-.431.559c.325 2.528.557 5.059.698 7.59a.5.5 0 0 0 .525.472c.113 2.22.157 4.44.131 6.655a.5.5 0 0 0-.507.492 106.075 106.075 0 0 1-.397 7.611.5.5 0 0 0 .453.542 107.536 107.536 0 0 1-.82 6.607.5.5 0 0 0-.572.414c-.402 2.51-.894 5.004-1.474 7.478a.5.5 0 0 0 .372.601c-.517 2.158-1.1 4.3-1.749 6.424a.498.498 0 0 0-.624.329 107.675 107.675 0 0 1-2.518 7.194.5.5 0 0 0 .283.647c-.816 2.062-1.696 4.1-2.639 6.112a.5.5 0 0 0-.665.238 107.257 107.257 0 0 1-3.51 6.765.5.5 0 0 0 .188.681 107.892 107.892 0 0 1-3.478 5.676.5.5 0 0 0-.692.141 107.166 107.166 0 0 1-4.436 6.198.5.5 0 0 0 .09.701 107.302 107.302 0 0 1-4.251 5.122.5.5 0 0 0-.705.041 105.92 105.92 0 0 1-5.275 5.504.502.502 0 0 0-.011.707 107.689 107.689 0 0 1-4.934 4.463.5.5 0 0 0-.704-.06 107.678 107.678 0 0 1-6.005 4.7.5.5 0 0 0-.111.698 109.38 109.38 0 0 1-5.516 3.721.498.498 0 0 0-.688-.158 110.673 110.673 0 0 1-6.613 3.817.501.501 0 0 0-.207.676 109.766 109.766 0 0 1-5.98 2.916.5.5 0 0 0-.66-.253 106.784 106.784 0 0 1-7.072 2.85.5.5 0 0 0-.301.64c-2.099.749-4.21 1.429-6.332 2.042a.5.5 0 0 0-.617-.344 105.936 105.936 0 0 1-7.405 1.816.5.5 0 0 0-.388.59c-2.182.443-4.37.816-6.561 1.12a.5.5 0 0 0-.562-.428c-2.526.339-5.056.586-7.586.742a.5.5 0 0 0-.468.529c-2.22.127-4.439.185-6.655.174a.5.5 0 0 0-.495-.503 107.289 107.289 0 0 1-7.614-.343.5.5 0 0 0-.538.457 108.34 108.34 0 0 1-6.613-.77.5.5 0 0 0-.419-.569 107.722 107.722 0 0 1-7.489-1.416.499.499 0 0 0-.597.376c-2.164-.5-4.31-1.066-6.438-1.698a.5.5 0 0 0-.334-.622 107.46 107.46 0 0 1-7.213-2.462.5.5 0 0 0-.645.288 108.003 108.003 0 0 1-6.132-2.593.501.501 0 0 0-.243-.664 106.163 106.163 0 0 1-6.789-3.462.502.502 0 0 0-.68.194 107.236 107.236 0 0 1-5.698-3.441.5.5 0 0 0-.146-.691 106.267 106.267 0 0 1-6.224-4.399.5.5 0 0 0-.7.093 105.892 105.892 0 0 1-5.144-4.223.5.5 0 0 0-.045-.705 104.908 104.908 0 0 1-5.526-5.252.5.5 0 0 0-.706-.008 106.1 106.1 0 0 1-4.48-4.92.5.5 0 0 0 .058-.704 105.742 105.742 0 0 1-4.712-5.994.5.5 0 0 0-.698-.109 107.707 107.707 0 0 1-3.727-5.512.5.5 0 0 0 .158-.689 106.69 106.69 0 0 1-3.818-6.612.5.5 0 0 0-.675-.207 107.41 107.41 0 0 1-2.91-5.984.5.5 0 0 0 .254-.659 105.87 105.87 0 0 1-2.834-7.078.5.5 0 0 0-.639-.302 105.94 105.94 0 0 1-2.021-6.339.5.5 0 0 0 .346-.616 105.251 105.251 0 0 1-1.785-7.412.5.5 0 0 0-.588-.391 105.89 105.89 0 0 1-1.086-6.566.5.5 0 0 0 .431-.56 105.682 105.682 0 0 1-.697-7.59.5.5 0 0 0-.526-.471c-.113-2.22-.156-4.44-.13-6.656a.5.5 0 0 0 .506-.492c.042-2.544.175-5.083.397-7.611a.5.5 0 0 0-.453-.542c.205-2.211.479-4.415.82-6.606a.5.5 0 0 0 .572-.415c.403-2.51.895-5.004 1.474-7.477a.5.5 0 0 0-.371-.601c.516-2.158 1.1-4.301 1.748-6.424a.5.5 0 0 0 .625-.33 107.531 107.531 0 0 1 2.517-7.193.5.5 0 0 0-.283-.647 107.992 107.992 0 0 1 2.64-6.113.5.5 0 0 0 .664-.237 107.102 107.102 0 0 1 3.51-6.765.5.5 0 0 0-.188-.681 107.284 107.284 0 0 1 3.479-5.676.5.5 0 0 0 .692-.141c1.4-2.112 2.88-4.18 4.435-6.198a.5.5 0 0 0-.09-.701 107.25 107.25 0 0 1 4.251-5.123.5.5 0 0 0 .705-.041 106.827 106.827 0 0 1 5.275-5.504.5.5 0 0 0 .011-.706 106.97 106.97 0 0 1 4.935-4.463.5.5 0 0 0 .704.059 107.771 107.771 0 0 1 6.004-4.7.5.5 0 0 0 .111-.697c1.79-1.288 3.628-2.53 5.516-3.721a.5.5 0 0 0 .688.158 111.11 111.11 0 0 1 6.613-3.818.499.499 0 0 0 .207-.675 108.862 108.862 0 0 1 5.981-2.916.5.5 0 0 0 .659.252 107.03 107.03 0 0 1 7.073-2.85.5.5 0 0 0 .3-.64 108.14 108.14 0 0 1 6.333-2.041.5.5 0 0 0 .617.343 106.532 106.532 0 0 1 7.404-1.816.5.5 0 0 0 .388-.59 108.16 108.16 0 0 1 6.561-1.12.5.5 0 0 0 .562.429c2.527-.34 5.057-.586 7.586-.743a.5.5 0 0 0 .468-.528c2.22-.128 4.44-.186 6.655-.175a.5.5 0 0 0 .495.504c2.546.023 5.085.138 7.614.342a.5.5 0 0 0 .539-.457c2.214.19 4.419.446 6.613.77a.5.5 0 0 0 .419.57c2.513.383 5.011.856 7.488 1.416a.5.5 0 0 0 .598-.376 108 108 0 0 1 6.437 1.698.5.5 0 0 0 .335.622c2.432.734 4.838 1.556 7.213 2.462a.5.5 0 0 0 .645-.288c2.068.8 4.113 1.665 6.131 2.593a.5.5 0 0 0 .243.663 106.388 106.388 0 0 1 6.79 3.462.499.499 0 0 0 .679-.193 106.65 106.65 0 0 1 5.699 3.441.5.5 0 0 0 .145.691 105.372 105.372 0 0 1 6.225 4.399.5.5 0 0 0 .7-.094 106.155 106.155 0 0 1 5.144 4.224.5.5 0 0 0 .044.705 105.468 105.468 0 0 1 5.527 5.251.5.5 0 0 0 .706.009 106.038 106.038 0 0 1 4.479 4.92.5.5 0 0 0-.058.704 105.59 105.59 0 0 1 4.713 5.993.499.499 0 0 0 .697.11Z" stroke="#1365E0" stroke-linecap="round" stroke-linejoin="round" stroke-dasharray="8 8"/><path d="M210.622 183.437c.556 2.39.95 4.842 1.171 7.344a.5.5 0 0 0-.457.537 53.092 53.092 0 0 1 0 8.364.5.5 0 0 0 .457.537 52.969 52.969 0 0 1-1.171 7.344.5.5 0 0 0-.602.369 52.166 52.166 0 0 1-2.613 7.935.5.5 0 0 0 .265.654 53.217 53.217 0 0 1-3.419 6.605.501.501 0 0 0-.687.161 53.172 53.172 0 0 1-4.962 6.725.5.5 0 0 0 .049.703 53.953 53.953 0 0 1-5.296 5.223.5.5 0 0 0-.703-.058 53.516 53.516 0 0 1-6.79 4.873.5.5 0 0 0-.17.685 53.874 53.874 0 0 1-6.643 3.344.5.5 0 0 0-.651-.271 53.444 53.444 0 0 1-7.958 2.548.502.502 0 0 0-.373.6 54.309 54.309 0 0 1-7.349 1.139.5.5 0 0 0-.537-.458 54.612 54.612 0 0 1-8.366 0 .5.5 0 0 0-.537.458 54.309 54.309 0 0 1-7.349-1.139.502.502 0 0 0-.373-.6 53.444 53.444 0 0 1-7.958-2.548.5.5 0 0 0-.651.271 53.874 53.874 0 0 1-6.643-3.344.5.5 0 0 0-.17-.685 53.516 53.516 0 0 1-6.79-4.873.5.5 0 0 0-.703.058 53.953 53.953 0 0 1-5.296-5.223.5.5 0 0 0 .049-.703 53.172 53.172 0 0 1-4.962-6.725.501.501 0 0 0-.687-.161 53.217 53.217 0 0 1-3.419-6.605.5.5 0 0 0 .265-.654 52.166 52.166 0 0 1-2.613-7.935.5.5 0 0 0-.602-.369 52.969 52.969 0 0 1-1.171-7.344.5.5 0 0 0 .457-.537 53.092 53.092 0 0 1 0-8.364.5.5 0 0 0-.457-.537 52.969 52.969 0 0 1 1.171-7.344.5.5 0 0 0 .602-.369 52.166 52.166 0 0 1 2.613-7.935.5.5 0 0 0-.265-.654 53.217 53.217 0 0 1 3.419-6.605.501.501 0 0 0 .687-.161 53.172 53.172 0 0 1 4.962-6.725.5.5 0 0 0-.049-.703 53.953 53.953 0 0 1 5.296-5.223.5.5 0 0 0 .703.058 53.516 53.516 0 0 1 6.79-4.873.5.5 0 0 0 .17-.685 53.874 53.874 0 0 1 6.643-3.344.5.5 0 0 0 .651.271 53.444 53.444 0 0 1 7.958-2.548.502.502 0 0 0 .373-.6 54.309 54.309 0 0 1 7.349-1.139.5.5 0 0 0 .537.458 54.612 54.612 0 0 1 8.366 0 .5.5 0 0 0 .537-.458c2.502.214 4.956.598 7.349 1.139a.502.502 0 0 0 .373.6 53.444 53.444 0 0 1 7.958 2.548.5.5 0 0 0 .651-.271c2.3.965 4.519 2.084 6.643 3.344a.5.5 0 0 0 .17.685 53.516 53.516 0 0 1 6.79 4.873.5.5 0 0 0 .703-.058 54.065 54.065 0 0 1 5.296 5.223.5.5 0 0 0-.049.703 53.172 53.172 0 0 1 4.962 6.725.501.501 0 0 0 .687.161 53.217 53.217 0 0 1 3.419 6.605.5.5 0 0 0-.265.654 52.166 52.166 0 0 1 2.613 7.935.5.5 0 0 0 .602.369Z" stroke="#ED254E" stroke-linecap="round" stroke-linejoin="round" stroke-dasharray="8 8"/><circle cx="250.942" cy="142.463" r="23.643" transform="rotate(-30 250.942 142.463)" fill="#14141C" stroke="#1365E0" stroke-width="2" stroke-dasharray="4 4"/><circle cx="210.663" cy="287.663" r="23.643" transform="rotate(-30 210.663 287.663)" fill="#14141C" stroke="#1365E0" stroke-width="2" stroke-dasharray="4 4"/><circle cx="64.663" cy="249.663" r="23.643" transform="rotate(-30 64.663 249.663)" fill="#14141C" stroke="#1365E0" stroke-width="2" stroke-dasharray="4 4"/><defs><filter id="b" x=".839" y=".403" width="205.29" height="205.29" filterUnits="userSpaceOnUse" color-interpolation-filters="sRGB"><feFlood flood-opacity="0" result="BackgroundImageFix"/><feBlend in="SourceGraphic" in2="BackgroundImageFix" result="shape"/><feGaussianBlur stdDeviation="32" result="effect1_foregroundBlur_205_227"/></filter></defs></svg>