<svg width="718" height="242" fill="none" xmlns="http://www.w3.org/2000/svg"><path d="M6.5 181.5 132 136l43 31.5 41.5-10.5 68 45.5 53.5-35 34 14 35.5-71.5 33.5 16 72-50 19.5 27.5 82-76 98-20.5" stroke="#06F9BE" stroke-width="2"/><path d="M132 136 6.5 181.5v60h706V7l-98 20.5-82 76L513 76l-72 50-33.5-16-35.5 71.5-34-14-53.5 35-68-45.5-41.5 10.5-43-31.5Z" fill="url(#a)"/><mask id="c" style="mask-type:alpha" maskUnits="userSpaceOnUse" x="6" y="7" width="707" height="235"><path d="M132 136 6.5 181.5v60h706V7L614 27.5l-81.5 76L513 76l-72 50-33.5-16-35.5 71.5-34-14-53.5 35-68-45.5-41.5 10.5-43-31.5Z" fill="url(#b)"/></mask><g mask="url(#c)" fill="#06F9BE"><path d="m155.671-23 7.281 5.29-198.671 273.448-7.281-5.29zm26 0 7.281 5.29L-9.719 255.738l-7.281-5.29zm26 0 7.281 5.29L16.281 255.738 9 250.448zm26 0 7.281 5.29L42.281 255.738 35 250.448zm26 0 7.281 5.29L68.281 255.738 61 250.448zm26 0 7.281 5.29L94.281 255.738 87 250.448zm26 0 7.281 5.29-198.671 273.448-7.281-5.29zm26 0 7.281 5.29-198.671 273.448-7.281-5.29zm26 0 7.281 5.29-198.671 273.448-7.281-5.29zm26 0 7.281 5.29-198.671 273.448-7.281-5.29zm26 0 7.281 5.29-198.671 273.448-7.281-5.29zm26 0 7.281 5.29-198.671 273.448-7.281-5.29zm26 0 7.281 5.29-198.671 273.448-7.281-5.29zm26 0 7.281 5.29-198.671 273.448-7.281-5.29zm26 0 7.281 5.29-198.671 273.448-7.281-5.29zm26 0 7.281 5.29-198.671 273.448-7.281-5.29zm26 0 7.281 5.29-198.671 273.448-7.281-5.29zm26 0 7.281 5.29-198.671 273.448-7.281-5.29zm26 0 7.281 5.29-198.671 273.448-7.281-5.29zm26 0 7.281 5.29-198.671 273.448-7.281-5.29zm26 0 7.281 5.29-198.671 273.448-7.281-5.29zm26 0 7.281 5.29-198.671 273.448-7.281-5.29zm26 0 7.281 5.29-198.671 273.448-7.281-5.29zm26 0 7.281 5.29-198.671 273.448-7.281-5.29zm26 0 7.281 5.29-198.671 273.448-7.281-5.29zm26 0 7.281 5.29-198.671 273.448-7.281-5.29zm26 0 7.281 5.29-198.671 273.448-7.281-5.29zm26 0 7.281 5.29-198.671 273.448-7.281-5.29zm26 0 7.281 5.29-198.671 273.448-7.281-5.29zm26 0 7.281 5.29-198.671 273.448-7.281-5.29z"/></g><circle cx="132" cy="137" r="7" fill="#1365E0"/><circle cx="175" cy="167" r="7" fill="#1365E0"/><circle cx="216" cy="158" r="7" fill="#1365E0"/><circle cx="284" cy="201" r="7" fill="#1365E0"/><circle cx="338" cy="168" r="7" fill="#1365E0"/><circle cx="372" cy="182" r="7" fill="#1365E0"/><circle cx="407" cy="111" r="7" fill="#1365E0"/><circle cx="441" cy="125" r="7" fill="#1365E0"/><circle cx="514" cy="76" r="7" fill="#1365E0"/><circle cx="532" cy="101" r="7" fill="#1365E0"/><circle cx="616" cy="28" r="7" fill="#1365E0"/><circle cx="711" cy="7" r="7" fill="#14141C"/><circle cx="7" cy="181" r="7" fill="#14141C"/><circle cx="7" cy="181" r="5" fill="#06F9BE"/><circle cx="175" cy="167" r="5" fill="#06F9BE"/><circle cx="216" cy="158" r="5" fill="#06F9BE"/><circle cx="338" cy="168" r="5" fill="#06F9BE"/><circle cx="284" cy="201" r="5" fill="#06F9BE"/><circle cx="372" cy="182" r="5" fill="#06F9BE"/><circle cx="407" cy="111" r="5" fill="#06F9BE"/><circle cx="441" cy="125" r="5" fill="#06F9BE"/><circle cx="514" cy="76" r="5" fill="#06F9BE"/><circle cx="532" cy="101" r="5" fill="#06F9BE"/><circle cx="616" cy="28" r="5" fill="#06F9BE"/><circle cx="711" cy="7" r="5" fill="#06F9BE"/><circle cx="132" cy="137" r="5" fill="#06F9BE"/><defs><linearGradient id="a" x1="359.5" y1="-10" x2="359.5" y2="241.5" gradientUnits="userSpaceOnUse"><stop stop-color="#06F9BE"/><stop offset="1" stop-color="#06F9BE" stop-opacity="0"/></linearGradient><linearGradient id="b" x1="359.5" y1="-10" x2="359.5" y2="241.5" gradientUnits="userSpaceOnUse"><stop stop-color="#06F9BE"/><stop offset="1" stop-color="#06F9BE" stop-opacity="0"/></linearGradient></defs></svg>