<svg width="188" height="55" fill="none" xmlns="http://www.w3.org/2000/svg"><g clip-path="url(#a)" fill="#F8F8FA"><path d="M129.051 46.38h-3.609v-5.028h3.565v.45h-3.097v1.818h2.785v.449h-2.785v1.863h3.141v.448ZM115.818 46.38h-.468v-5.028h.468v5.029ZM107.241 46.38h-3.342v-5.028h.468v4.58h2.852l.022.448ZM101.471 46.38h-3.609v-5.028h3.565v.45H98.33v1.818h2.785v.449H98.33v1.863h3.141v.448ZM82.312 46.38h-.468v-5.028h.468v5.029ZM89.24 46.38h-.356l-3.342-4.242v4.242h-.468v-5.028h.424l3.274 4.153v-4.153h.468v5.029ZM93.785 46.38h-.468v-4.579h-1.693v-.449h3.854v.45h-1.693v4.578ZM112.944 46.38h-3.341v-5.028h.467v4.58h2.852l.022.448ZM120.898 46.47c-1.471 0-2.495-1.077-2.495-2.58 0-1.28.913-2.582 2.45-2.582a2.62 2.62 0 0 1 1.827.65l.045.046-.312.359-.045-.045a2.263 2.263 0 0 0-1.537-.584c-1.114 0-1.961.92-1.961 2.155 0 1.302.825 2.155 2.028 2.155a2.436 2.436 0 0 0 1.492-.539v-1.324h-1.626v-.449h2.094v1.975l-.022.023a2.942 2.942 0 0 1-1.938.74ZM135.646 46.38h-.356l-3.342-4.242v4.242h-.468v-5.028h.423l3.275 4.153v-4.153h.468v5.029ZM140.191 46.38h-.468v-4.579h-1.693v-.449h3.854v.45h-1.693v4.578ZM149.459 46.448a2.778 2.778 0 0 1-2.006-.808l-.044-.045.312-.359.044.045a2.359 2.359 0 0 0 1.716.718c.69 0 1.181-.381 1.181-.92 0-.471-.223-.763-1.337-.988-1.203-.247-1.693-.673-1.693-1.459 0-.785.69-1.346 1.626-1.346.626-.016 1.236.2 1.715.605l.045.045-.29.382-.044-.045a1.96 1.96 0 0 0-1.426-.539c-.668 0-1.136.36-1.136.876 0 .471.223.785 1.381 1.01 1.159.224 1.649.673 1.649 1.414-.045.853-.713 1.414-1.693 1.414ZM155.429 46.38h-.468v-1.975l-2.138-3.03h.579l.022.022 1.782 2.56 1.805-2.582h.557l-2.139 3.03v1.975ZM161.199 46.448a2.773 2.773 0 0 1-2.005-.808l-.044-.045.312-.36.044.046a2.359 2.359 0 0 0 1.716.718c.69 0 1.18-.382 1.18-.92 0-.472-.223-.763-1.336-.988-1.203-.247-1.694-.673-1.694-1.459 0-.785.691-1.347 1.627-1.347.62-.019 1.224.198 1.693.606l.044.045-.289.382-.045-.045a1.96 1.96 0 0 0-1.426-.539c-.668 0-1.136.36-1.136.876 0 .471.223.785 1.382 1.01 1.158.224 1.648.673 1.648 1.414 0 .853-.668 1.414-1.671 1.414ZM167.058 46.38h-.467v-4.579h-1.694v-.449h3.855v.45h-1.694v4.578ZM174.744 46.38h-3.609v-5.028h3.565v.45h-3.097v1.818h2.785v.449h-2.785v1.863h3.141v.448ZM181.896 46.38h-.468v-4.13l-1.849 2.694h-.089l-1.849-2.694v4.13h-.468v-5.028h.423l1.916 2.851 1.916-2.85h.423l.045 5.027ZM186.307 46.448a2.77 2.77 0 0 1-2.005-.808l-.045-.045.312-.359.045.045a2.345 2.345 0 0 0 1.715.718c.691 0 1.181-.381 1.181-.92 0-.471-.223-.763-1.337-.988-1.203-.247-1.693-.673-1.693-1.459 0-.785.691-1.346 1.626-1.346.626-.016 1.237.2 1.716.605l.044.045-.289.382-.045-.045a1.96 1.96 0 0 0-1.426-.539c-.646 0-1.136.36-1.136.876 0 .471.223.785 1.381 1.01 1.159.224 1.649.673 1.649 1.414-.022.853-.691 1.414-1.693 1.414ZM187.777 31.432c0 4.511-4.054 6.127-7.842 6.127-3.787 0-6.483-1.391-7.975-4.107l4.322-2.47c.668 1.415 1.938 2.178 3.653 2.178 2.317 0 2.651-1.1 2.651-1.75 0-1.168-1.448-1.572-3.274-2.11-2.941-.831-6.595-1.864-6.595-5.949 0-4.242 3.698-6.128 7.374-6.128 3.052 0 5.548 1.28 7.129 3.636l-4.255 2.312c-.713-1.077-1.648-1.616-2.874-1.616-1.604 0-2.183.853-2.183 1.616 0 1.213 1.426 1.572 3.23 2.065 2.986.786 6.639 1.774 6.639 6.196ZM111.273 29.12a14.141 14.141 0 0 0 3.008 4.31 14.08 14.08 0 0 1-7.232 3.793c-2.728.52-5.548.219-8.108-.868a14.14 14.14 0 0 1-6.278-5.24 14.298 14.298 0 0 1-2.355-7.865c0-2.798.819-5.534 2.355-7.865a14.14 14.14 0 0 1 6.279-5.24 14.018 14.018 0 0 1 8.107-.869c2.729.52 5.244 1.84 7.232 3.794a14.142 14.142 0 0 0-3.008 4.31 8.983 8.983 0 0 0-4.566-2.894 8.93 8.93 0 0 0-5.389.259 9.004 9.004 0 0 0-4.272 3.32 9.109 9.109 0 0 0-1.618 5.185 9.11 9.11 0 0 0 1.618 5.185 9.003 9.003 0 0 0 4.272 3.32 8.93 8.93 0 0 0 5.389.259 8.984 8.984 0 0 0 4.566-2.895ZM151.174 34.978a10.173 10.173 0 0 1-5.23 2.574 10.133 10.133 0 0 1-5.776-.727 10.226 10.226 0 0 1-4.441-3.79 10.33 10.33 0 0 1-1.661-5.622c0-1.996.577-3.95 1.661-5.62a10.225 10.225 0 0 1 4.441-3.791 10.132 10.132 0 0 1 5.776-.727 10.172 10.172 0 0 1 5.23 2.574 10.438 10.438 0 0 0-2.785 4.355 5.206 5.206 0 0 0-2.464-1.766 5.173 5.173 0 0 0-3.023-.089 5.206 5.206 0 0 0-2.562 1.618 5.28 5.28 0 0 0-.735 5.784c.459.93 1.181 1.7 2.075 2.216a5.178 5.178 0 0 0 5.774-.401c.354-.268.669-.585.935-.943a10.438 10.438 0 0 0 2.785 4.355ZM171.715 37.043h-5.57l-6.906-9.674 6.505-9.63h5.792l-6.928 9.652 7.107 9.652ZM158.905 9.659h-4.902v27.384h4.902V9.66ZM131.747 11.88c0 .622-.183 1.23-.525 1.747-.343.516-.83.92-1.4 1.157a3.096 3.096 0 0 1-3.399-.681 3.157 3.157 0 0 1 .472-4.835 3.103 3.103 0 0 1 3.939.39c.585.59.913 1.39.913 2.223ZM131.057 17.74h-4.901v19.303h4.901V17.739ZM122.145 8.536h-5.124v28.507h5.124V8.536ZM87.792 11.88a3.16 3.16 0 0 1-.526 1.747c-.342.516-.83.92-1.4 1.157a3.096 3.096 0 0 1-3.398-.681 3.164 3.164 0 0 1-.676-3.425 3.137 3.137 0 0 1 1.148-1.41 3.102 3.102 0 0 1 3.939.39c.584.59.913 1.39.913 2.223ZM87.168 17.74h-5.124v19.303h5.124V17.739ZM76.876 27.503a27.65 27.65 0 0 1-4.777 15.535 27.333 27.333 0 0 1-12.651 10.1 27.106 27.106 0 0 1-16.102 1.134 27.256 27.256 0 0 1-13.923-8.228 21.243 21.243 0 0 0 7.837-7.815 21.448 21.448 0 0 0 2.873-10.726c0-3.768-.992-7.469-2.873-10.726a21.243 21.243 0 0 0-7.837-7.814A27.249 27.249 0 0 1 43.346.726a27.099 27.099 0 0 1 16.106 1.132 27.327 27.327 0 0 1 12.653 10.104 27.642 27.642 0 0 1 4.77 15.541ZM18.952 27.503a30.828 30.828 0 0 0 5.837 18.16 18.8 18.8 0 0 1-8.812.695 18.861 18.861 0 0 1-8.166-3.41 19.042 19.042 0 0 1-5.74-6.773 19.196 19.196 0 0 1 0-17.32 19.041 19.041 0 0 1 5.74-6.774 18.86 18.86 0 0 1 8.166-3.41c2.95-.472 5.97-.234 8.812.696a30.711 30.711 0 0 0-5.837 18.136ZM28.576 11.095l-2.584 2.604a26.608 26.608 0 0 1 1.983-2.986c.2.113.401.247.601.382Z"/><path d="M35.817 36.167a18.967 18.967 0 0 1-7.864 8.104.393.393 0 0 0-.09-.113l7.954-7.99ZM37.889 27.122 25.212 39.894c-.133-.27-.29-.561-.423-.853L37.822 25.91l.067 1.212ZM33.233 14.979 22.338 25.955c.023-.584 0-1.145.223-1.729v-.09l9.914-9.988c.267.27.512.539.758.83ZM30.982 12.801l-7.752 7.812c.022-.741.378-1.46.623-2.155 0-.023.023-.045.023-.09l6.215-6.262.022.022c.29.224.602.426.87.673ZM36.352 20.073 22.985 33.541c-.2-.426-.2-.853-.268-1.28v-.022l13.167-13.265c.167.35.316.71.445 1.077l.023.023ZM37.488 23.396 23.987 36.998c-.134-.381-.267-.785-.401-1.167l13.5-13.603c.179.36.179.764.402 1.168ZM37.71 30.152a18.741 18.741 0 0 1-.267 1.549L26.727 42.497c-.156-.247-.334-.516-.49-.785l11.473-11.56ZM22.338 30.017V28.47l12.008-12.076c.223.314.401.628.602.942l-12.61 12.682Z"/></g><defs><clipPath id="a"><path fill="#fff" d="M0 0h188v55H0z"/></clipPath></defs></svg>